FFmpeg version SVN-r25716, Copyright (c) 2000-2010 the FFmpeg developers  built on Nov 10 2010 12:23:18 with gcc 4.1.2 20080704 (Red Hat 4.1.2-48)  configuration: --enable-libmp3lame --enable-shared --disable-mmx --arch=x86_64  libavutil     50.33. 0 / 50.33. 0  libavcore      0.12. 1 /  0.12. 1  libavcodec    52.94. 4 / 52.94. 4  libavformat   52.84. 0 / 52.84. 0  libavdevice   52. 2. 2 / 52. 2. 2  libavfilter    1.59. 0 /  1.59. 0  libswscale     0.12. 0 /  0.12. 0Seems stream 0 codec frame rate differs from container frame rate: 6000.00 (6000/1) -> 30.00 (30/1)Input #0, mov,mp4,m4a,3gp,3g2,mj2, from '/RAID10/data/converted_video_files/20151.mov':  Metadata:    major_brand     : qt      minor_version   : 537199360    compatible_brands: qt    Duration: 00:00:23.46, start: 0.000000, bitrate: 672 kb/s    Stream #0.0(eng): Video: h264, yuv420p, 640x480, 668 kb/s, 30 fps, 30 tbr, 3k tbn, 6k tbc[buffer @ 0x1bb922f0] w:640 h:480 pixfmt:yuv420pOutput #0, flv, to '/RAID10/data/converted_video_files/20151.flv':  Metadata:    encoder         : Lavf52.84.0    Stream #0.0(eng): Video: flv, yuv420p, 640x480, q=2-31, 600 kb/s, 1k tbn, 24 tbcStream mapping:  Stream #0.0 -> #0.0Press [q] to stop encodingframe=   44 fps=  0 q=2.0 size=     248kB time=1.83 bitrate=1107.7kbits/s dup=0 drop=10    frame=   89 fps= 85 q=2.4 size=     472kB time=3.71 bitrate=1042.3kbits/s dup=0 drop=22    frame=  138 fps= 89 q=2.8 size=     666kB time=5.75 bitrate= 949.4kbits/s dup=0 drop=34    frame=  186 fps= 91 q=3.9 size=     835kB time=7.75 bitrate= 882.6kbits/s dup=0 drop=46    frame=  236 fps= 92 q=3.2 size=    1005kB time=9.83 bitrate= 837.2kbits/s dup=0 drop=58    frame=  284 fps= 92 q=4.0 size=    1163kB time=11.83 bitrate= 805.4kbits/s dup=0 drop=70    frame=  330 fps= 92 q=4.0 size=    1320kB time=13.75 bitrate= 786.2kbits/s dup=0 drop=82    frame=  379 fps= 93 q=4.7 size=    1476kB time=15.79 bitrate= 765.8kbits/s dup=0 drop=94    frame=  428 fps= 94 q=4.1 size=    1625kB time=17.83 bitrate= 746.6kbits/s dup=0 drop=107    frame=  478 fps= 94 q=4.5 size=    1778kB time=19.92 bitrate= 731.1kbits/s dup=0 drop=119    frame=  524 fps= 94 q=4.4 size=    1922kB time=21.83 bitrate= 721.3kbits/s dup=0 drop=130    frame=  563 fps= 94 q=4.5 Lsize=    2032kB time=23.46 bitrate= 709.7kbits/s dup=0 drop=141    video:2023kB audio:0kB global headers:0kB muxing overhead 0.444902%